<svg width="25" height="25" viewBox="0 0 25 25" fill="none" xmlns="http://www.w3.org/2000/svg">
<path fill-rule="evenodd" clip-rule="evenodd" d="M15.8734 16.75C15.7583 16.8573 15.666 16.9867 15.6019 17.1304C15.5379 17.2742 15.5034 17.4293 15.5006 17.5867C15.4979 17.744 15.5268 17.9003 15.5857 18.0462C15.6447 18.1922 15.7324 18.3247 15.8437 18.436C15.955 18.5473 16.0875 18.635 16.2334 18.6939C16.3794 18.7529 16.5357 18.7818 16.693 18.7791C16.8504 18.7763 17.0055 18.7418 17.1493 18.6778C17.293 18.6137 17.4224 18.5214 17.5297 18.4063L22.6078 13.3281L23.4375 12.5L22.6094 11.6719L17.5312 6.59375C17.3103 6.38018 17.0144 6.26192 16.7071 6.26444C16.3998 6.26697 16.1059 6.39007 15.8885 6.60725C15.6711 6.82442 15.5477 7.11829 15.5449 7.42555C15.5421 7.73281 15.6601 8.02888 15.8734 8.25L18.9516 11.3281H2.73438C2.42357 11.3281 2.1255 11.4516 1.90573 11.6714C1.68597 11.8911 1.5625 12.1892 1.5625 12.5C1.5625 12.8108 1.68597 13.1089 1.90573 13.3286C2.1255 13.5484 2.42357 13.6719 2.73438 13.6719H18.9516L15.8734 16.75Z" fill="#F7E8E8"/>
</svg>
